%TF.GenerationSoftware,KiCad,Pcbnew,6.0.11-2627ca5db0~126~ubuntu22.04.1*%
%TF.CreationDate,2024-01-20T13:06:25+00:00*%
%TF.ProjectId,RP2040_minimal,52503230-3430-45f6-9d69-6e696d616c2e,REV1*%
%TF.SameCoordinates,Original*%
%TF.FileFunction,Drillmap*%
%TF.FilePolarity,Positive*%
%FSLAX45Y45*%
G04 Gerber Fmt 4.5, Leading zero omitted, Abs format (unit mm)*
G04 Created by KiCad (PCBNEW 6.0.11-2627ca5db0~126~ubuntu22.04.1) date 2024-01-20 13:06:25*
%MOMM*%
%LPD*%
G01*
G04 APERTURE LIST*
%ADD10C,0.600000*%
%ADD11C,0.200000*%
%ADD12C,0.270000*%
G04 APERTURE END LIST*
D10*
X12300000Y-12100000D02*
G75*
G03*
X12600000Y-11800000I0J300000D01*
G01*
X7400000Y-11800000D02*
G75*
G03*
X7700000Y-12100000I300000J0D01*
G01*
X7700000Y-7000000D02*
G75*
G03*
X7400000Y-7300000I0J-300000D01*
G01*
X12600000Y-7300000D02*
G75*
G03*
X12300000Y-7000000I-300000J0D01*
G01*
X12600000Y-7300000D02*
X12600000Y-11800000D01*
X7700000Y-7000000D02*
X12300000Y-7000000D01*
X7400000Y-11800000D02*
X7400000Y-7300000D01*
X12300000Y-12100000D02*
X7700000Y-12100000D01*
D11*
D12*
X8468000Y-7265000D02*
X8738000Y-7535000D01*
X8738000Y-7265000D02*
X8468000Y-7535000D01*
X8468000Y-11583000D02*
X8738000Y-11853000D01*
X8738000Y-11583000D02*
X8468000Y-11853000D01*
X11262000Y-7265000D02*
X11532000Y-7535000D01*
X11532000Y-7265000D02*
X11262000Y-7535000D01*
X11262000Y-11583000D02*
X11532000Y-11853000D01*
X11532000Y-11583000D02*
X11262000Y-11853000D01*
D11*
X7627619Y-12440476D02*
X7627619Y-12240476D01*
X7675238Y-12240476D01*
X7703809Y-12250000D01*
X7722857Y-12269048D01*
X7732381Y-12288095D01*
X7741905Y-12326190D01*
X7741905Y-12354762D01*
X7732381Y-12392857D01*
X7722857Y-12411905D01*
X7703809Y-12430952D01*
X7675238Y-12440476D01*
X7627619Y-12440476D01*
X7827619Y-12440476D02*
X7827619Y-12307143D01*
X7827619Y-12345238D02*
X7837143Y-12326190D01*
X7846667Y-12316667D01*
X7865714Y-12307143D01*
X7884762Y-12307143D01*
X7951428Y-12440476D02*
X7951428Y-12307143D01*
X7951428Y-12240476D02*
X7941905Y-12250000D01*
X7951428Y-12259524D01*
X7960952Y-12250000D01*
X7951428Y-12240476D01*
X7951428Y-12259524D01*
X8075238Y-12440476D02*
X8056190Y-12430952D01*
X8046667Y-12411905D01*
X8046667Y-12240476D01*
X8180000Y-12440476D02*
X8160952Y-12430952D01*
X8151428Y-12411905D01*
X8151428Y-12240476D01*
X8408571Y-12440476D02*
X8408571Y-12240476D01*
X8475238Y-12383333D01*
X8541905Y-12240476D01*
X8541905Y-12440476D01*
X8722857Y-12440476D02*
X8722857Y-12335714D01*
X8713333Y-12316667D01*
X8694286Y-12307143D01*
X8656190Y-12307143D01*
X8637143Y-12316667D01*
X8722857Y-12430952D02*
X8703810Y-12440476D01*
X8656190Y-12440476D01*
X8637143Y-12430952D01*
X8627619Y-12411905D01*
X8627619Y-12392857D01*
X8637143Y-12373809D01*
X8656190Y-12364286D01*
X8703810Y-12364286D01*
X8722857Y-12354762D01*
X8818095Y-12307143D02*
X8818095Y-12507143D01*
X8818095Y-12316667D02*
X8837143Y-12307143D01*
X8875238Y-12307143D01*
X8894286Y-12316667D01*
X8903810Y-12326190D01*
X8913333Y-12345238D01*
X8913333Y-12402381D01*
X8903810Y-12421428D01*
X8894286Y-12430952D01*
X8875238Y-12440476D01*
X8837143Y-12440476D01*
X8818095Y-12430952D01*
X8999048Y-12421428D02*
X9008571Y-12430952D01*
X8999048Y-12440476D01*
X8989524Y-12430952D01*
X8999048Y-12421428D01*
X8999048Y-12440476D01*
X8999048Y-12316667D02*
X9008571Y-12326190D01*
X8999048Y-12335714D01*
X8989524Y-12326190D01*
X8999048Y-12316667D01*
X8999048Y-12335714D01*
X7170000Y-12670000D02*
X7370000Y-12870000D01*
X7370000Y-12670000D02*
X7170000Y-12870000D01*
X7618095Y-12679524D02*
X7627619Y-12670000D01*
X7646667Y-12660476D01*
X7694286Y-12660476D01*
X7713333Y-12670000D01*
X7722857Y-12679524D01*
X7732381Y-12698571D01*
X7732381Y-12717619D01*
X7722857Y-12746190D01*
X7608571Y-12860476D01*
X7732381Y-12860476D01*
X7818095Y-12841428D02*
X7827619Y-12850952D01*
X7818095Y-12860476D01*
X7808571Y-12850952D01*
X7818095Y-12841428D01*
X7818095Y-12860476D01*
X7894286Y-12660476D02*
X8027619Y-12660476D01*
X7941905Y-12860476D01*
X8141905Y-12660476D02*
X8160952Y-12660476D01*
X8180000Y-12670000D01*
X8189524Y-12679524D01*
X8199048Y-12698571D01*
X8208571Y-12736667D01*
X8208571Y-12784286D01*
X8199048Y-12822381D01*
X8189524Y-12841428D01*
X8180000Y-12850952D01*
X8160952Y-12860476D01*
X8141905Y-12860476D01*
X8122857Y-12850952D01*
X8113333Y-12841428D01*
X8103809Y-12822381D01*
X8094286Y-12784286D01*
X8094286Y-12736667D01*
X8103809Y-12698571D01*
X8113333Y-12679524D01*
X8122857Y-12670000D01*
X8141905Y-12660476D01*
X8332381Y-12660476D02*
X8351428Y-12660476D01*
X8370476Y-12670000D01*
X8380000Y-12679524D01*
X8389524Y-12698571D01*
X8399048Y-12736667D01*
X8399048Y-12784286D01*
X8389524Y-12822381D01*
X8380000Y-12841428D01*
X8370476Y-12850952D01*
X8351428Y-12860476D01*
X8332381Y-12860476D01*
X8313333Y-12850952D01*
X8303809Y-12841428D01*
X8294286Y-12822381D01*
X8284762Y-12784286D01*
X8284762Y-12736667D01*
X8294286Y-12698571D01*
X8303809Y-12679524D01*
X8313333Y-12670000D01*
X8332381Y-12660476D01*
X8484762Y-12860476D02*
X8484762Y-12727143D01*
X8484762Y-12746190D02*
X8494286Y-12736667D01*
X8513333Y-12727143D01*
X8541905Y-12727143D01*
X8560952Y-12736667D01*
X8570476Y-12755714D01*
X8570476Y-12860476D01*
X8570476Y-12755714D02*
X8580000Y-12736667D01*
X8599048Y-12727143D01*
X8627619Y-12727143D01*
X8646667Y-12736667D01*
X8656190Y-12755714D01*
X8656190Y-12860476D01*
X8751429Y-12860476D02*
X8751429Y-12727143D01*
X8751429Y-12746190D02*
X8760952Y-12736667D01*
X8780000Y-12727143D01*
X8808571Y-12727143D01*
X8827619Y-12736667D01*
X8837143Y-12755714D01*
X8837143Y-12860476D01*
X8837143Y-12755714D02*
X8846667Y-12736667D01*
X8865714Y-12727143D01*
X8894286Y-12727143D01*
X8913333Y-12736667D01*
X8922857Y-12755714D01*
X8922857Y-12860476D01*
X9313333Y-12650952D02*
X9141905Y-12908095D01*
X9570476Y-12660476D02*
X9589524Y-12660476D01*
X9608571Y-12670000D01*
X9618095Y-12679524D01*
X9627619Y-12698571D01*
X9637143Y-12736667D01*
X9637143Y-12784286D01*
X9627619Y-12822381D01*
X9618095Y-12841428D01*
X9608571Y-12850952D01*
X9589524Y-12860476D01*
X9570476Y-12860476D01*
X9551429Y-12850952D01*
X9541905Y-12841428D01*
X9532381Y-12822381D01*
X9522857Y-12784286D01*
X9522857Y-12736667D01*
X9532381Y-12698571D01*
X9541905Y-12679524D01*
X9551429Y-12670000D01*
X9570476Y-12660476D01*
X9722857Y-12841428D02*
X9732381Y-12850952D01*
X9722857Y-12860476D01*
X9713333Y-12850952D01*
X9722857Y-12841428D01*
X9722857Y-12860476D01*
X9922857Y-12860476D02*
X9808571Y-12860476D01*
X9865714Y-12860476D02*
X9865714Y-12660476D01*
X9846667Y-12689048D01*
X9827619Y-12708095D01*
X9808571Y-12717619D01*
X10046667Y-12660476D02*
X10065714Y-12660476D01*
X10084762Y-12670000D01*
X10094286Y-12679524D01*
X10103810Y-12698571D01*
X10113333Y-12736667D01*
X10113333Y-12784286D01*
X10103810Y-12822381D01*
X10094286Y-12841428D01*
X10084762Y-12850952D01*
X10065714Y-12860476D01*
X10046667Y-12860476D01*
X10027619Y-12850952D01*
X10018095Y-12841428D01*
X10008571Y-12822381D01*
X9999048Y-12784286D01*
X9999048Y-12736667D01*
X10008571Y-12698571D01*
X10018095Y-12679524D01*
X10027619Y-12670000D01*
X10046667Y-12660476D01*
X10284762Y-12660476D02*
X10246667Y-12660476D01*
X10227619Y-12670000D01*
X10218095Y-12679524D01*
X10199048Y-12708095D01*
X10189524Y-12746190D01*
X10189524Y-12822381D01*
X10199048Y-12841428D01*
X10208571Y-12850952D01*
X10227619Y-12860476D01*
X10265714Y-12860476D01*
X10284762Y-12850952D01*
X10294286Y-12841428D01*
X10303810Y-12822381D01*
X10303810Y-12774762D01*
X10294286Y-12755714D01*
X10284762Y-12746190D01*
X10265714Y-12736667D01*
X10227619Y-12736667D01*
X10208571Y-12746190D01*
X10199048Y-12755714D01*
X10189524Y-12774762D01*
X10370476Y-12660476D02*
X10494286Y-12660476D01*
X10427619Y-12736667D01*
X10456190Y-12736667D01*
X10475238Y-12746190D01*
X10484762Y-12755714D01*
X10494286Y-12774762D01*
X10494286Y-12822381D01*
X10484762Y-12841428D01*
X10475238Y-12850952D01*
X10456190Y-12860476D01*
X10399048Y-12860476D01*
X10380000Y-12850952D01*
X10370476Y-12841428D01*
X10570476Y-12660476D02*
X10570476Y-12698571D01*
X10646667Y-12660476D02*
X10646667Y-12698571D01*
X10941905Y-12936667D02*
X10932381Y-12927143D01*
X10913333Y-12898571D01*
X10903810Y-12879524D01*
X10894286Y-12850952D01*
X10884762Y-12803333D01*
X10884762Y-12765238D01*
X10894286Y-12717619D01*
X10903810Y-12689048D01*
X10913333Y-12670000D01*
X10932381Y-12641428D01*
X10941905Y-12631905D01*
X11103810Y-12727143D02*
X11103810Y-12860476D01*
X11056190Y-12650952D02*
X11008571Y-12793809D01*
X11132381Y-12793809D01*
X11360952Y-12860476D02*
X11360952Y-12660476D01*
X11446667Y-12860476D02*
X11446667Y-12755714D01*
X11437143Y-12736667D01*
X11418095Y-12727143D01*
X11389524Y-12727143D01*
X11370476Y-12736667D01*
X11360952Y-12746190D01*
X11570476Y-12860476D02*
X11551428Y-12850952D01*
X11541905Y-12841428D01*
X11532381Y-12822381D01*
X11532381Y-12765238D01*
X11541905Y-12746190D01*
X11551428Y-12736667D01*
X11570476Y-12727143D01*
X11599048Y-12727143D01*
X11618095Y-12736667D01*
X11627619Y-12746190D01*
X11637143Y-12765238D01*
X11637143Y-12822381D01*
X11627619Y-12841428D01*
X11618095Y-12850952D01*
X11599048Y-12860476D01*
X11570476Y-12860476D01*
X11751428Y-12860476D02*
X11732381Y-12850952D01*
X11722857Y-12831905D01*
X11722857Y-12660476D01*
X11903809Y-12850952D02*
X11884762Y-12860476D01*
X11846667Y-12860476D01*
X11827619Y-12850952D01*
X11818095Y-12831905D01*
X11818095Y-12755714D01*
X11827619Y-12736667D01*
X11846667Y-12727143D01*
X11884762Y-12727143D01*
X11903809Y-12736667D01*
X11913333Y-12755714D01*
X11913333Y-12774762D01*
X11818095Y-12793809D01*
X11989524Y-12850952D02*
X12008571Y-12860476D01*
X12046667Y-12860476D01*
X12065714Y-12850952D01*
X12075238Y-12831905D01*
X12075238Y-12822381D01*
X12065714Y-12803333D01*
X12046667Y-12793809D01*
X12018095Y-12793809D01*
X11999048Y-12784286D01*
X11989524Y-12765238D01*
X11989524Y-12755714D01*
X11999048Y-12736667D01*
X12018095Y-12727143D01*
X12046667Y-12727143D01*
X12065714Y-12736667D01*
X12141905Y-12936667D02*
X12151428Y-12927143D01*
X12170476Y-12898571D01*
X12180000Y-12879524D01*
X12189524Y-12850952D01*
X12199048Y-12803333D01*
X12199048Y-12765238D01*
X12189524Y-12717619D01*
X12180000Y-12689048D01*
X12170476Y-12670000D01*
X12151428Y-12641428D01*
X12141905Y-12631905D01*
X12503809Y-12936667D02*
X12494286Y-12927143D01*
X12475238Y-12898571D01*
X12465714Y-12879524D01*
X12456190Y-12850952D01*
X12446667Y-12803333D01*
X12446667Y-12765238D01*
X12456190Y-12717619D01*
X12465714Y-12689048D01*
X12475238Y-12670000D01*
X12494286Y-12641428D01*
X12503809Y-12631905D01*
X12580000Y-12727143D02*
X12580000Y-12860476D01*
X12580000Y-12746190D02*
X12589524Y-12736667D01*
X12608571Y-12727143D01*
X12637143Y-12727143D01*
X12656190Y-12736667D01*
X12665714Y-12755714D01*
X12665714Y-12860476D01*
X12789524Y-12860476D02*
X12770476Y-12850952D01*
X12760952Y-12841428D01*
X12751428Y-12822381D01*
X12751428Y-12765238D01*
X12760952Y-12746190D01*
X12770476Y-12736667D01*
X12789524Y-12727143D01*
X12818095Y-12727143D01*
X12837143Y-12736667D01*
X12846667Y-12746190D01*
X12856190Y-12765238D01*
X12856190Y-12822381D01*
X12846667Y-12841428D01*
X12837143Y-12850952D01*
X12818095Y-12860476D01*
X12789524Y-12860476D01*
X12913333Y-12727143D02*
X12989524Y-12727143D01*
X12941905Y-12660476D02*
X12941905Y-12831905D01*
X12951428Y-12850952D01*
X12970476Y-12860476D01*
X12989524Y-12860476D01*
X13208571Y-12727143D02*
X13208571Y-12927143D01*
X13208571Y-12736667D02*
X13227619Y-12727143D01*
X13265714Y-12727143D01*
X13284762Y-12736667D01*
X13294286Y-12746190D01*
X13303809Y-12765238D01*
X13303809Y-12822381D01*
X13294286Y-12841428D01*
X13284762Y-12850952D01*
X13265714Y-12860476D01*
X13227619Y-12860476D01*
X13208571Y-12850952D01*
X13418095Y-12860476D02*
X13399048Y-12850952D01*
X13389524Y-12831905D01*
X13389524Y-12660476D01*
X13580000Y-12860476D02*
X13580000Y-12755714D01*
X13570476Y-12736667D01*
X13551428Y-12727143D01*
X13513333Y-12727143D01*
X13494286Y-12736667D01*
X13580000Y-12850952D02*
X13560952Y-12860476D01*
X13513333Y-12860476D01*
X13494286Y-12850952D01*
X13484762Y-12831905D01*
X13484762Y-12812857D01*
X13494286Y-12793809D01*
X13513333Y-12784286D01*
X13560952Y-12784286D01*
X13580000Y-12774762D01*
X13646667Y-12727143D02*
X13722857Y-12727143D01*
X13675238Y-12660476D02*
X13675238Y-12831905D01*
X13684762Y-12850952D01*
X13703809Y-12860476D01*
X13722857Y-12860476D01*
X13865714Y-12850952D02*
X13846667Y-12860476D01*
X13808571Y-12860476D01*
X13789524Y-12850952D01*
X13780000Y-12831905D01*
X13780000Y-12755714D01*
X13789524Y-12736667D01*
X13808571Y-12727143D01*
X13846667Y-12727143D01*
X13865714Y-12736667D01*
X13875238Y-12755714D01*
X13875238Y-12774762D01*
X13780000Y-12793809D01*
X14046667Y-12860476D02*
X14046667Y-12660476D01*
X14046667Y-12850952D02*
X14027619Y-12860476D01*
X13989524Y-12860476D01*
X13970476Y-12850952D01*
X13960952Y-12841428D01*
X13951428Y-12822381D01*
X13951428Y-12765238D01*
X13960952Y-12746190D01*
X13970476Y-12736667D01*
X13989524Y-12727143D01*
X14027619Y-12727143D01*
X14046667Y-12736667D01*
X14122857Y-12936667D02*
X14132381Y-12927143D01*
X14151428Y-12898571D01*
X14160952Y-12879524D01*
X14170476Y-12850952D01*
X14180000Y-12803333D01*
X14180000Y-12765238D01*
X14170476Y-12717619D01*
X14160952Y-12689048D01*
X14151428Y-12670000D01*
X14132381Y-12641428D01*
X14122857Y-12631905D01*
M02*
